<?xml version="1.0"?>
<svg width="250mm" height="200mm" viewBox="0 0   3200    1500"
     xmlns="http://www.w3.org/2000/svg"
     xmlns:xlink="http://www.w3.org/1999/xlink"
     xmlns:ev="http://www.w3.org/2001/xml-events">
<g font-family="Verdana" font-size="8" >
  <line x1="  2400" y1="   470" x2="  2100" y2="    70" style = "stroke:silver  ;"/>
  <line x1="  2400" y1="   550" x2="  2100" y2="   150" style = "stroke:silver  ;"/>
  <line x1="  2400" y1="   590" x2="  2100" y2="   190" style = "stroke:silver  ;"/>
  <line x1="  2400" y1="   630" x2="   900" y2="    30" style = "stroke:silver  ;"/>
  <line x1="  2050" y1="   310" x2="   600" y2="    30" style = "stroke:silver  ;"/>
  <rect x="   200" y="   740" width="   200" height="    20" style = "fill:snow; stroke: Black;"/>     1
  <text x="   202" y="   753">OutdoorAir:NodeList</text>
  <rect x="  1700" y="   300" width="   200" height="    20" style = "fill:wheat; stroke: Black;"/>     9
  <text x="  1702" y="   313">CHW DEMAND 1 CHW SPLITTER</text>
  <rect x="  2200" y="   340" width="   200" height="    20" style = "fill:wheat; stroke: Black;"/>    10
  <text x="  2202" y="   353">CHW DEMAND 1 CHW MIXER</text>
  <rect x="   450" y="   260" width="   200" height="    20" style = "fill:wheat; stroke: Black;"/>    11
  <text  x="   452" y="   268">PURCHASED CHW PLANT CHW SUPPLY
  <tspan x="   452" y="   276">SPLITTER</tspan></text>
  <rect x="   950" y="   300" width="   200" height="    20" style = "fill:wheat; stroke: Black;"/>    12
  <text x="   952" y="   313">PURCHASED CHW PLANT CHW SUPPLY MIXER</text>
  <rect x="  2000" y="   420" width="   200" height="    20" style = "fill:wheat; stroke: Black;"/>    13
  <text x="  2002" y="   433">STEAM DEMAND 1 STEAM SPLITTER</text>
  <rect x="  2600" y="   660" width="   200" height="    20" style = "fill:wheat; stroke: Black;"/>    14
  <text x="  2602" y="   673">STEAM DEMAND 1 STEAM MIXER</text>
  <rect x="   500" y="   420" width="   200" height="    20" style = "fill:wheat; stroke: Black;"/>    15
  <text  x="   502" y="   428">STEAM BOILER PLANT STEAM SUPPLY
  <tspan x="   502" y="   436">SPLITTER</tspan></text>
  <rect x="  1100" y="   420" width="   200" height="    20" style = "fill:wheat; stroke: Black;"/>    16
  <text  x="  1102" y="   428">STEAM BOILER PLANT STEAM SUPPLY
  <tspan x="  1102" y="   436">MIXER</tspan></text>
  <rect x="  2000" y="    20" width="   200" height="    20" style = "fill:chartreuse; stroke: Black;"/>    17
  <text x="  2002" y="    33">SPACE1-1</text>
  <rect x="  1400" y="    20" width="   200" height="    20" style = "fill:wheat; stroke: Black;"/>    22
  <text x="  1402" y="    33">VAV SYS 1 ZONE SPLITTER</text>
  <rect x="  1700" y="    60" width="   200" height="    20" style = "fill:wheat; stroke: Black;"/>    23
  <text x="  1702" y="    73">SPACE2-1 VAV REHEAT</text>
  <rect x="  2300" y="   460" width="   200" height="    20" style = "fill:salmon; stroke: Black;"/>    24
  <text x="  2302" y="   473">SPACE2-1 REHEAT COIL</text>
  <rect x="  2000" y="    60" width="   200" height="    20" style = "fill:salmon; stroke: Black;"/>    25
  <text x="  2002" y="    73">SPACE2-1 REHEAT COIL</text>
  <rect x="  2300" y="   540" width="   200" height="    20" style = "fill:salmon; stroke: Black;"/>    26
  <text x="  2302" y="   553">SPACE4-1 REHEAT COIL</text>
  <rect x="  2000" y="   140" width="   200" height="    20" style = "fill:salmon; stroke: Black;"/>    27
  <text x="  2002" y="   153">SPACE4-1 REHEAT COIL</text>
  <rect x="  2300" y="   580" width="   200" height="    20" style = "fill:salmon; stroke: Black;"/>    28
  <text x="  2302" y="   593">SPACE5-1 REHEAT COIL</text>
  <rect x="  2000" y="   180" width="   200" height="    20" style = "fill:salmon; stroke: Black;"/>    29
  <text x="  2002" y="   193">SPACE5-1 REHEAT COIL</text>
  <rect x="  2300" y="   620" width="   200" height="    20" style = "fill:salmon; stroke: Black;"/>    30
  <text x="  2302" y="   633">VAV SYS 1 HEATING COIL</text>
  <rect x="   800" y="    20" width="   200" height="    20" style = "fill:salmon; stroke: Black;"/>    31
  <text x="   802" y="    33">VAV SYS 1 HEATING COIL</text>
  <rect x="  1700" y="   140" width="   200" height="    20" style = "fill:wheat; stroke: Black;"/>    32
  <text x="  1702" y="   153">SPACE4-1 VAV REHEAT</text>
  <rect x="  1700" y="   180" width="   200" height="    20" style = "fill:wheat; stroke: Black;"/>    33
  <text x="  1702" y="   193">SPACE5-1 VAV REHEAT</text>
  <rect x="  1700" y="    20" width="   200" height="    20" style = "fill:wheat; stroke: Black;"/>    34
  <text x="  1702" y="    33">SPACE1-1 VAV SYSTEM</text>
  <rect x="  1700" y="   100" width="   200" height="    20" style = "fill:wheat; stroke: Black;"/>    35
  <text x="  1702" y="   113">SPACE3-1 VAV SYSTEM</text>
  <rect x="  2300" y="   420" width="   200" height="    20" style = "fill:aliceblue; stroke: Black;"/>    36
  <text x="  2302" y="   433">SPACE1-1 BASEBOARD</text>
  <rect x="  2300" y="   500" width="   200" height="    20" style = "fill:aliceblue; stroke: Black;"/>    37
  <text x="  2302" y="   513">SPACE3-1 BASEBOARD</text>
  <rect x="  2600" y="   180" width="   200" height="    20" style = "fill:lightgreen; stroke: Black;"/>    38
  <text x="  2602" y="   193">RETURN-PLENUM-1</text>
  <rect x="   200" y="    20" width="   200" height="    20" style = "fill:lawngreen; stroke: Black;"/>    39
  <text x="   202" y="    33">VAV SYS 1 OA MIXING BOX</text>
  <rect x="  1950" y="   300" width="   200" height="    20" style = "fill:skyblue; stroke: Black;"/>    40
  <text x="  1952" y="   313">VAV SYS 1 COOLING COIL</text>
  <rect x="   500" y="    20" width="   200" height="    20" style = "fill:skyblue; stroke: Black;"/>    41
  <text x="   502" y="    33">VAV SYS 1 COOLING COIL</text>
  <rect x="  1100" y="    20" width="   200" height="    20" style = "fill:silver; stroke: Black;"/>    44
  <text x="  1102" y="    33">VAV SYS 1 SUPPLY FAN</text>
  <rect x="  1450" y="   300" width="   200" height="    20" style = "fill:wheat; stroke: Black;"/>    45
  <text x="  1452" y="   313">CHW DEMAND 1 CHW INLET PIPE</text>
  <rect x="  2450" y="   340" width="   200" height="    20" style = "fill:wheat; stroke: Black;"/>    46
  <text x="  2452" y="   353">CHW DEMAND 1 CHW OUTLET PIPE</text>
  <rect x="  1950" y="   340" width="   200" height="    20" style = "fill:wheat; stroke: Black;"/>    47
  <text x="  1952" y="   353">CHW DEMAND 1 CHW BYPASS PIPE</text>
  <rect x="   700" y="   300" width="   200" height="    20" style = "fill:wheat; stroke: Black;"/>    48
  <text  x="   702" y="   308">PURCHASED CHW PLANT CHW SUPPLY SIDE
  <tspan x="   702" y="   316">BYPASS</tspan></text>
  <rect x="  1200" y="   300" width="   200" height="    20" style = "fill:wheat; stroke: Black;"/>    49
  <text  x="  1202" y="   308">PURCHASED CHW PLANT CHW SUPPLY
  <tspan x="  1202" y="   316">OUTLET</tspan></text>
  <rect x="  1700" y="   420" width="   200" height="    20" style = "fill:aliceblue; stroke: Black;"/>    50
  <text x="  1702" y="   433">STEAM DEMAND 1 STEAM INLET PIPE</text>
  <rect x="  2900" y="   660" width="   200" height="    20" style = "fill:aliceblue; stroke: Black;"/>    51
  <text x="  2902" y="   673">STEAM DEMAND 1 STEAM OUTLET PIPE</text>
  <rect x="  1400" y="   420" width="   200" height="    20" style = "fill:aliceblue; stroke: Black;"/>    52
  <text  x="  1402" y="   428">STEAM BOILER PLANT STEAM SUPPLY
  <tspan x="  1402" y="   436">OUTLET</tspan></text>
  <rect x="  2300" y="   660" width="   200" height="    20" style = "fill:aliceblue; stroke: Black;"/>    53
  <text x="  2302" y="   673">HEATING DEMAND BYPASS</text>
  <rect x="   700" y="   260" width="   200" height="    20" style = "fill:powderblue; stroke: Black;"/>    54
  <text x="   702" y="   273">PURCHASED CHW PLANT CHILLER</text>
  <rect x="   800" y="   420" width="   200" height="    20" style = "fill:indianred; stroke: Black;"/>    55
  <text x="   802" y="   433">STEAM BOILER PLANT BOILER</text>
  <rect x="   200" y="   260" width="   200" height="    20" style = "fill:springgreen; stroke: Black;"/>    56
  <text x="   202" y="   273">PURCHASED CHW PLANT CHW CIRC PUMP</text>
  <rect x="   200" y="   420" width="   200" height="    20" style = "fill:springgreen; stroke: Black;"/>    57
  <text x="   202" y="   433">STEAM BOILER PLANT STEAM CIRC PUMP</text>
  <rect x="  2300" y="    60" width="   200" height="    20" style = "fill:chartreuse; stroke: Black;"/>    58
  <text x="  2302" y="    73">SPACE2-1</text>
  <rect x="  2000" y="   100" width="   200" height="    20" style = "fill:chartreuse; stroke: Black;"/>    59
  <text x="  2002" y="   113">SPACE3-1</text>
  <rect x="  2300" y="   140" width="   200" height="    20" style = "fill:chartreuse; stroke: Black;"/>    60
  <text x="  2302" y="   153">SPACE4-1</text>
  <rect x="  2300" y="   180" width="   200" height="    20" style = "fill:chartreuse; stroke: Black;"/>    61
  <text x="  2302" y="   193">SPACE5-1</text>
  <line x1="  1900" y1="   310" x2="  1950" y2="   310" style = "stroke: Black;"/>
  <line x1="  1900" y1="   310" x2="  1950" y2="   350" style = "stroke: Black;"/>
  <line x1="  2400" y1="   350" x2="  2450" y2="   350" style = "stroke: Black;"/>
  <line x1="   650" y1="   270" x2="   700" y2="   270" style = "stroke: Black;"/>
  <line x1="   650" y1="   270" x2="   700" y2="   310" style = "stroke: Black;"/>
  <line x1="  1150" y1="   310" x2="  1200" y2="   310" style = "stroke: Black;"/>
  <line x1="  2200" y1="   430" x2="  2300" y2="   430" style = "stroke: Black;"/>
  <line x1="  2200" y1="   430" x2="  2300" y2="   470" style = "stroke: Black;"/>
  <line x1="  2200" y1="   430" x2="  2300" y2="   510" style = "stroke: Black;"/>
  <line x1="  2200" y1="   430" x2="  2300" y2="   550" style = "stroke: Black;"/>
  <line x1="  2200" y1="   430" x2="  2300" y2="   590" style = "stroke: Black;"/>
  <line x1="  2200" y1="   430" x2="  2300" y2="   630" style = "stroke: Black;"/>
  <line x1="  2200" y1="   430" x2="  2300" y2="   670" style = "stroke: Black;"/>
  <line x1="  2800" y1="   670" x2="  2900" y2="   670" style = "stroke: Black;"/>
  <line x1="   700" y1="   430" x2="   800" y2="   430" style = "stroke: Black;"/>
  <line x1="  1300" y1="   430" x2="  1400" y2="   430" style = "stroke: Black;"/>
  <line x1="  1600" y1="    30" x2="  1700" y2="    30" style = "stroke: Black;"/>
  <line x1="  1600" y1="    30" x2="  1700" y2="    70" style = "stroke: Black;"/>
  <line x1="  1600" y1="    30" x2="  1700" y2="   110" style = "stroke: Black;"/>
  <line x1="  1600" y1="    30" x2="  1700" y2="   150" style = "stroke: Black;"/>
  <line x1="  1600" y1="    30" x2="  1700" y2="   190" style = "stroke: Black;"/>
  <line x1="  1900" y1="    70" x2="  2000" y2="    70" style = "stroke: Black;"/>
  <line x1="  2500" y1="   470" x2="  2600" y2="   670" style = "stroke: Black;"/>
  <line x1="  2200" y1="    70" x2="  2300" y2="    70" style = "stroke: Black;"/>
  <line x1="  2500" y1="   550" x2="  2600" y2="   670" style = "stroke: Black;"/>
  <line x1="  2200" y1="   150" x2="  2300" y2="   150" style = "stroke: Black;"/>
  <line x1="  2500" y1="   590" x2="  2600" y2="   670" style = "stroke: Black;"/>
  <line x1="  2200" y1="   190" x2="  2300" y2="   190" style = "stroke: Black;"/>
  <line x1="  2500" y1="   630" x2="  2600" y2="   670" style = "stroke: Black;"/>
  <line x1="  1000" y1="    30" x2="  1100" y2="    30" style = "stroke: Black;"/>
  <line x1="  1900" y1="   150" x2="  2000" y2="   150" style = "stroke: Black;"/>
  <line x1="  1900" y1="   190" x2="  2000" y2="   190" style = "stroke: Black;"/>
  <line x1="  1900" y1="    30" x2="  2000" y2="    30" style = "stroke: Black;"/>
  <line x1="  1900" y1="   110" x2="  2000" y2="   110" style = "stroke: Black;"/>
  <line x1="  2500" y1="   430" x2="  2600" y2="   670" style = "stroke: Black;"/>
  <line x1="  2500" y1="   510" x2="  2600" y2="   670" style = "stroke: Black;"/>
  <line x1="   400" y1="    30" x2="   500" y2="    30" style = "stroke: Black;"/>
  <line x1="  2150" y1="   310" x2="  2200" y2="   350" style = "stroke: Black;"/>
  <line x1="   700" y1="    30" x2="   800" y2="    30" style = "stroke: Black;"/>
  <line x1="  1300" y1="    30" x2="  1400" y2="    30" style = "stroke: Black;"/>
  <line x1="  1650" y1="   310" x2="  1700" y2="   310" style = "stroke: Black;"/>
  <line x1="  2150" y1="   350" x2="  2200" y2="   350" style = "stroke: Black;"/>
  <line x1="   900" y1="   310" x2="   950" y2="   310" style = "stroke: Black;"/>
  <line x1="  1400" y1="   310" x2="  1450" y2="   310" style = "stroke: Black;"/>
  <line x1="  1900" y1="   430" x2="  2000" y2="   430" style = "stroke: Black;"/>
  <line x1="  1600" y1="   430" x2="  1700" y2="   430" style = "stroke: Black;"/>
  <line x1="  2500" y1="   670" x2="  2600" y2="   670" style = "stroke: Black;"/>
  <line x1="   900" y1="   270" x2="   950" y2="   310" style = "stroke: Black;"/>
  <line x1="  1000" y1="   430" x2="  1100" y2="   430" style = "stroke: Black;"/>
  <line x1="   400" y1="   270" x2="   450" y2="   270" style = "stroke: Black;"/>
  <line x1="   400" y1="   430" x2="   500" y2="   430" style = "stroke: Black;"/>
  <line x1="  2200" y1="    30" x2="  2300" y2="    50" style = "stroke: Black;"/>
  <line x1="  2300" y1="    50" x2="  2500" y2="    50" style = "stroke: Black;"/>
  <line x1="  2500" y1="    50" x2="  2600" y2="   190" style = "stroke: Black;"/>
  <line x1="  2500" y1="    70" x2="  2600" y2="   190" style = "stroke: Black;"/>
  <line x1="  2200" y1="   110" x2="  2300" y2="   130" style = "stroke: Black;"/>
  <line x1="  2300" y1="   130" x2="  2500" y2="   130" style = "stroke: Black;"/>
  <line x1="  2500" y1="   130" x2="  2600" y2="   190" style = "stroke: Black;"/>
  <line x1="  2500" y1="   150" x2="  2600" y2="   190" style = "stroke: Black;"/>
  <line x1="  2500" y1="   190" x2="  2600" y2="   190" style = "stroke: Black;"/>
  <line x1="   200" y1="    30" x2="   175" y2="    30" style = "stroke: Black;"/>
  <line x1="   175" y1="    30" x2="   175" y2="     0" style = "stroke: Black;"/>
  <line x1="   175" y1="     0" x2="  2825" y2="     0" style = "stroke: Black;"/>
  <line x1="  2825" y1="     0" x2="  2825" y2="   190" style = "stroke: Black;"/>
  <line x1="  2825" y1="   190" x2="  2800" y2="   190" style = "stroke: Black;"/>
  <line x1="   200" y1="   270" x2="   175" y2="   270" style = "stroke: Black;"/>
  <line x1="   175" y1="   270" x2="   175" y2="   240" style = "stroke: Black;"/>
  <line x1="   175" y1="   240" x2="  2675" y2="   240" style = "stroke: Black;"/>
  <line x1="  2675" y1="   240" x2="  2675" y2="   350" style = "stroke: Black;"/>
  <line x1="  2675" y1="   350" x2="  2650" y2="   350" style = "stroke: Black;"/>
  <line x1="   200" y1="   430" x2="   175" y2="   430" style = "stroke: Black;"/>
  <line x1="   175" y1="   430" x2="   175" y2="   400" style = "stroke: Black;"/>
  <line x1="   175" y1="   400" x2="  3125" y2="   400" style = "stroke: Black;"/>
  <line x1="  3125" y1="   400" x2="  3125" y2="   670" style = "stroke: Black;"/>
  <line x1="  3125" y1="   670" x2="  3100" y2="   670" style = "stroke: Black;"/>
  <text x="   200" y="   800">Unused Non-Parent Objects:</text>
  <text x="   220" y="   820">VAV SYS 1 SUPPLY AIR TEMP MANAGER</text>
  <text x="   220" y="   840">VAV SYS 1 HEATING COIL AIR TEMP MANAGER</text>
  <text x="   220" y="   860">PURCHASED CHW PLANT CHW TEMP MANAGER</text>
  <text x="   220" y="   880">STEAM BOILER PLANT STEAM TEMP MANAGER</text>
  <text x="   220" y="   900">STEAM BOILER PLANT BOILER SETPOINT MANAGER</text>
  <text x="   220" y="   920">VAV SYS 1 COOLING COIL AIR TEMP MANAGER</text>
  <text x="   220" y="   940">VAV SYS 1 MIXED AIR TEMP MANAGER</text>
  <text x="   220" y="   960">VAV SYS 1 COOLING COIL CONTROLLER</text>
  <text x="   220" y="   980">VAV SYS 1 OA CONTROLLER</text>
  <text x="   200" y="  1020">
The following are not supported: objects related to controls, AirTerminal:SingleDuct:Uncontrolled, or ZoneHVAC:IdealLoadsAirSystem</text>
</g>
</svg>
